<svg xmlns="http://www.w3.org/2000/svg" viewBox="0 0 512 512" width="512" height="512">
<g transform="translate(46.1 306.4) scale(0.9786) rotate(-40)">
<g transform="rotate(-12 -20 102)"><rect x="-61.0" y="74.12" width="82" height="55.760000000000005" rx="9.0" fill="#FFFFFF" stroke="#0A0C0F" stroke-width="5"/><path d="M -49.5 82.5 L -20 109.2 L 9.5 82.5" fill="none" stroke="#0A0C0F" stroke-width="5" stroke-linecap="round" stroke-linejoin="round"/></g>
<g>
<defs><clipPath id="bodyclip3"><path d="M 24 100
C 18 82, 30 58, 60 46
C 92 34, 140 34, 176 42
C 186 18, 200 0, 218 -8
C 226 10, 233 30, 240 48
C 292 58, 326 70, 352 84
C 372 60, 398 46, 426 42
C 420 66, 402 86, 380 98
L 368 102
C 398 110, 418 130, 426 154
C 400 150, 372 132, 350 110
C 322 128, 290 143, 240 150
C 180 158, 120 152, 70 132
C 42 121, 27 112, 24 100 Z"/></clipPath></defs>
<path d="M 24 100
C 18 82, 30 58, 60 46
C 92 34, 140 34, 176 42
C 186 18, 200 0, 218 -8
C 226 10, 233 30, 240 48
C 292 58, 326 70, 352 84
C 372 60, 398 46, 426 42
C 420 66, 402 86, 380 98
L 368 102
C 398 110, 418 130, 426 154
C 400 150, 372 132, 350 110
C 322 128, 290 143, 240 150
C 180 158, 120 152, 70 132
C 42 121, 27 112, 24 100 Z"  fill="none" stroke="#00E5A0" stroke-width="14" stroke-linejoin="round" stroke-linecap="round"/><path d="M -52 -18
C -20 -24, 30 -16, 56 -2
C 60 2, 54 9, 44 13
C 12 25, -30 23, -52 11
C -58 7, -58 -12, -52 -18 Z" transform="translate(206 146) rotate(44) scale(1.12)" fill="none" stroke="#00E5A0" stroke-width="14" stroke-linejoin="round" stroke-linecap="round"/>
<path d="M -52 -18
C -20 -24, 30 -16, 56 -2
C 60 2, 54 9, 44 13
C 12 25, -30 23, -52 11
C -58 7, -58 -12, -52 -18 Z" transform="translate(206 146) rotate(44) scale(1.12)" fill="#0A0C0F"/>
<path d="M 24 100
C 18 82, 30 58, 60 46
C 92 34, 140 34, 176 42
C 186 18, 200 0, 218 -8
C 226 10, 233 30, 240 48
C 292 58, 326 70, 352 84
C 372 60, 398 46, 426 42
C 420 66, 402 86, 380 98
L 368 102
C 398 110, 418 130, 426 154
C 400 150, 372 132, 350 110
C 322 128, 290 143, 240 150
C 180 158, 120 152, 70 132
C 42 121, 27 112, 24 100 Z" fill="#0A0C0F"/>
<g clip-path="url(#bodyclip3)"><path d="M 24 100
C 27 112, 42 121, 70 132
C 120 152, 180 158, 240 150
C 290 143, 322 128, 350 110
C 338 123, 324 131, 308 137
C 320 122, 323 108, 320 94
C 300 112, 274 122, 246 128
C 194 137, 126 126, 74 109
C 50 101, 33 97, 24 100 Z" fill="#FFFFFF"/></g>
<path d="M 28 104 C 52 116, 82 124, 112 126" fill="none" stroke="#0A0C0F" stroke-width="4.5" stroke-linecap="round" opacity="0.85"/>
<ellipse cx="86" cy="76" rx="30" ry="16" fill="#FFFFFF" transform="rotate(-16 86 76)"/><circle cx="77" cy="78" r="9.2" fill="#0A0C0F"/><circle cx="80.5" cy="73.5" r="3.4" fill="#FFFFFF"/>
</g>
</g>
<circle cx="432" cy="402" r="10" fill="none" stroke="#00E5A0" stroke-width="3.8" opacity="0.9"/><circle cx="470" cy="444" r="6" fill="none" stroke="#00E5A0" stroke-width="2.6" opacity="0.9"/><circle cx="400" cy="456" r="4.5" fill="none" stroke="#00E5A0" stroke-width="2.6" opacity="0.9"/>
</svg>
